<svg xmlns="http://www.w3.org/2000/svg" width="344" height="448" viewBox="0 0 344 448">
<rect width="100%" height="100%" fill="#171d2d"/>
<line x1="16" y1="16" x2="16" y2="432" stroke="#242b3d" stroke-width="1"/>
<line x1="42" y1="16" x2="42" y2="432" stroke="#242b3d" stroke-width="1"/>
<line x1="68" y1="16" x2="68" y2="432" stroke="#242b3d" stroke-width="1"/>
<line x1="94" y1="16" x2="94" y2="432" stroke="#242b3d" stroke-width="1"/>
<line x1="120" y1="16" x2="120" y2="432" stroke="#242b3d" stroke-width="1"/>
<line x1="146" y1="16" x2="146" y2="432" stroke="#242b3d" stroke-width="1"/>
<line x1="172" y1="16" x2="172" y2="432" stroke="#242b3d" stroke-width="1"/>
<line x1="198" y1="16" x2="198" y2="432" stroke="#242b3d" stroke-width="1"/>
<line x1="224" y1="16" x2="224" y2="432" stroke="#242b3d" stroke-width="1"/>
<line x1="250" y1="16" x2="250" y2="432" stroke="#242b3d" stroke-width="1"/>
<line x1="276" y1="16" x2="276" y2="432" stroke="#242b3d" stroke-width="1"/>
<line x1="302" y1="16" x2="302" y2="432" stroke="#242b3d" stroke-width="1"/>
<line x1="328" y1="16" x2="328" y2="432" stroke="#242b3d" stroke-width="1"/>
<line x1="16" y1="16" x2="328" y2="16" stroke="#242b3d" stroke-width="1"/>
<line x1="16" y1="42" x2="328" y2="42" stroke="#242b3d" stroke-width="1"/>
<line x1="16" y1="68" x2="328" y2="68" stroke="#242b3d" stroke-width="1"/>
<line x1="16" y1="94" x2="328" y2="94" stroke="#242b3d" stroke-width="1"/>
<line x1="16" y1="120" x2="328" y2="120" stroke="#242b3d" stroke-width="1"/>
<line x1="16" y1="146" x2="328" y2="146" stroke="#242b3d" stroke-width="1"/>
<line x1="16" y1="172" x2="328" y2="172" stroke="#242b3d" stroke-width="1"/>
<line x1="16" y1="198" x2="328" y2="198" stroke="#242b3d" stroke-width="1"/>
<line x1="16" y1="224" x2="328" y2="224" stroke="#242b3d" stroke-width="1"/>
<line x1="16" y1="250" x2="328" y2="250" stroke="#242b3d" stroke-width="1"/>
<line x1="16" y1="276" x2="328" y2="276" stroke="#242b3d" stroke-width="1"/>
<line x1="16" y1="302" x2="328" y2="302" stroke="#242b3d" stroke-width="1"/>
<line x1="16" y1="328" x2="328" y2="328" stroke="#242b3d" stroke-width="1"/>
<line x1="16" y1="354" x2="328" y2="354" stroke="#242b3d" stroke-width="1"/>
<line x1="16" y1="380" x2="328" y2="380" stroke="#242b3d" stroke-width="1"/>
<line x1="16" y1="406" x2="328" y2="406" stroke="#242b3d" stroke-width="1"/>
<line x1="16" y1="432" x2="328" y2="432" stroke="#242b3d" stroke-width="1"/>
<polyline points="29.0,419.0 55.0,419.0 81.0,419.0 107.0,419.0" fill="none" stroke="#ff3b4f" stroke-width="5" stroke-linecap="round" stroke-linejoin="round"/>
<polygon points="21.0,419.0 13.3,412.6 13.3,425.4" fill="#ff3b4f"/>
<polyline points="133.0,419.0 159.0,419.0" fill="none" stroke="#1ea7ff" stroke-width="5" stroke-linecap="round" stroke-linejoin="round"/>
<polygon points="125.0,419.0 117.3,412.6 117.3,425.4" fill="#1ea7ff"/>
<polyline points="185.0,419.0 211.0,419.0 237.0,419.0" fill="none" stroke="#ffe63b" stroke-width="5" stroke-linecap="round" stroke-linejoin="round"/>
<polygon points="177.0,419.0 169.3,412.6 169.3,425.4" fill="#ffe63b"/>
<polyline points="263.0,419.0 289.0,419.0 315.0,419.0" fill="none" stroke="#35c957" stroke-width="5" stroke-linecap="round" stroke-linejoin="round"/>
<polygon points="255.0,419.0 247.3,412.6 247.3,425.4" fill="#35c957"/>
<polyline points="315.0,393.0 315.0,367.0 315.0,341.0 315.0,315.0" fill="none" stroke="#a25bbd" stroke-width="5" stroke-linecap="round" stroke-linejoin="round"/>
<polygon points="315.0,401.0 308.6,408.7 321.4,408.7" fill="#a25bbd"/>
<polyline points="315.0,289.0 315.0,263.0" fill="none" stroke="#00c8d9" stroke-width="5" stroke-linecap="round" stroke-linejoin="round"/>
<polygon points="315.0,297.0 308.6,304.7 321.4,304.7" fill="#00c8d9"/>
<polyline points="315.0,237.0 315.0,211.0 315.0,185.0 315.0,159.0 315.0,133.0" fill="none" stroke="#ff9d00" stroke-width="5" stroke-linecap="round" stroke-linejoin="round"/>
<polygon points="315.0,245.0 308.6,252.7 321.4,252.7" fill="#ff9d00"/>
<polyline points="315.0,107.0 315.0,81.0 315.0,55.0 315.0,29.0" fill="none" stroke="#ff2d7a" stroke-width="5" stroke-linecap="round" stroke-linejoin="round"/>
<polygon points="315.0,115.0 308.6,122.7 321.4,122.7" fill="#ff2d7a"/>
<polyline points="289.0,29.0 263.0,29.0 237.0,29.0" fill="none" stroke="#ff3b4f" stroke-width="5" stroke-linecap="round" stroke-linejoin="round"/>
<polygon points="297.0,29.0 304.7,35.4 304.7,22.6" fill="#ff3b4f"/>
<polyline points="211.0,29.0 185.0,29.0" fill="none" stroke="#1ea7ff" stroke-width="5" stroke-linecap="round" stroke-linejoin="round"/>
<polygon points="219.0,29.0 226.7,35.4 226.7,22.6" fill="#1ea7ff"/>
<polyline points="159.0,29.0 133.0,29.0 107.0,29.0 81.0,29.0 55.0,29.0 29.0,29.0" fill="none" stroke="#ffe63b" stroke-width="5" stroke-linecap="round" stroke-linejoin="round"/>
<polygon points="167.0,29.0 174.7,35.4 174.7,22.6" fill="#ffe63b"/>
<polyline points="29.0,55.0 29.0,81.0 29.0,107.0 29.0,133.0" fill="none" stroke="#35c957" stroke-width="5" stroke-linecap="round" stroke-linejoin="round"/>
<polygon points="29.0,47.0 35.4,39.3 22.6,39.3" fill="#35c957"/>
<polyline points="29.0,159.0 29.0,185.0" fill="none" stroke="#a25bbd" stroke-width="5" stroke-linecap="round" stroke-linejoin="round"/>
<polygon points="29.0,151.0 35.4,143.3 22.6,143.3" fill="#a25bbd"/>
<polyline points="29.0,211.0 29.0,237.0 29.0,263.0 29.0,289.0" fill="none" stroke="#00c8d9" stroke-width="5" stroke-linecap="round" stroke-linejoin="round"/>
<polygon points="29.0,203.0 35.4,195.3 22.6,195.3" fill="#00c8d9"/>
<polyline points="29.0,315.0 29.0,341.0 29.0,367.0 29.0,393.0" fill="none" stroke="#ff9d00" stroke-width="5" stroke-linecap="round" stroke-linejoin="round"/>
<polygon points="29.0,307.0 35.4,299.3 22.6,299.3" fill="#ff9d00"/>
<polyline points="55.0,393.0 81.0,393.0 107.0,393.0" fill="none" stroke="#ff2d7a" stroke-width="5" stroke-linecap="round" stroke-linejoin="round"/>
<polygon points="47.0,393.0 39.3,386.6 39.3,399.4" fill="#ff2d7a"/>
<polyline points="133.0,393.0 159.0,393.0 185.0,393.0 211.0,393.0" fill="none" stroke="#ff3b4f" stroke-width="5" stroke-linecap="round" stroke-linejoin="round"/>
<polygon points="125.0,393.0 117.3,386.6 117.3,399.4" fill="#ff3b4f"/>
<polyline points="237.0,393.0 263.0,393.0 289.0,393.0 289.0,367.0" fill="none" stroke="#1ea7ff" stroke-width="5" stroke-linecap="round" stroke-linejoin="round"/>
<polygon points="229.0,393.0 221.3,386.6 221.3,399.4" fill="#1ea7ff"/>
<polyline points="289.0,341.0 289.0,315.0 289.0,289.0 289.0,263.0 289.0,237.0" fill="none" stroke="#ffe63b" stroke-width="5" stroke-linecap="round" stroke-linejoin="round"/>
<polygon points="289.0,349.0 282.6,356.7 295.4,356.7" fill="#ffe63b"/>
<polyline points="289.0,211.0 289.0,185.0 289.0,159.0" fill="none" stroke="#35c957" stroke-width="5" stroke-linecap="round" stroke-linejoin="round"/>
<polygon points="289.0,219.0 282.6,226.7 295.4,226.7" fill="#35c957"/>
<polyline points="289.0,133.0 289.0,107.0 289.0,81.0 289.0,55.0" fill="none" stroke="#a25bbd" stroke-width="5" stroke-linecap="round" stroke-linejoin="round"/>
<polygon points="289.0,141.0 282.6,148.7 295.4,148.7" fill="#a25bbd"/>
<polyline points="263.0,55.0 237.0,55.0 211.0,55.0 185.0,55.0" fill="none" stroke="#00c8d9" stroke-width="5" stroke-linecap="round" stroke-linejoin="round"/>
<polygon points="271.0,55.0 278.7,61.4 278.7,48.6" fill="#00c8d9"/>
<polyline points="159.0,55.0 133.0,55.0 107.0,55.0 81.0,55.0 55.0,55.0" fill="none" stroke="#ff9d00" stroke-width="5" stroke-linecap="round" stroke-linejoin="round"/>
<polygon points="167.0,55.0 174.7,61.4 174.7,48.6" fill="#ff9d00"/>
<polyline points="55.0,81.0 55.0,107.0 55.0,133.0 55.0,159.0" fill="none" stroke="#ff2d7a" stroke-width="5" stroke-linecap="round" stroke-linejoin="round"/>
<polygon points="55.0,73.0 61.4,65.3 48.6,65.3" fill="#ff2d7a"/>
<polyline points="55.0,185.0 55.0,211.0 55.0,237.0" fill="none" stroke="#ff3b4f" stroke-width="5" stroke-linecap="round" stroke-linejoin="round"/>
<polygon points="55.0,177.0 61.4,169.3 48.6,169.3" fill="#ff3b4f"/>
<polyline points="55.0,263.0 55.0,289.0 55.0,315.0 55.0,341.0 55.0,367.0" fill="none" stroke="#1ea7ff" stroke-width="5" stroke-linecap="round" stroke-linejoin="round"/>
<polygon points="55.0,255.0 61.4,247.3 48.6,247.3" fill="#1ea7ff"/>
<polyline points="81.0,367.0 107.0,367.0 133.0,367.0" fill="none" stroke="#ffe63b" stroke-width="5" stroke-linecap="round" stroke-linejoin="round"/>
<polygon points="73.0,367.0 65.3,360.6 65.3,373.4" fill="#ffe63b"/>
<polyline points="159.0,367.0 185.0,367.0 211.0,367.0 237.0,367.0 263.0,367.0" fill="none" stroke="#35c957" stroke-width="5" stroke-linecap="round" stroke-linejoin="round"/>
<polygon points="151.0,367.0 143.3,360.6 143.3,373.4" fill="#35c957"/>
<polyline points="263.0,341.0 263.0,315.0 263.0,289.0 263.0,263.0" fill="none" stroke="#a25bbd" stroke-width="5" stroke-linecap="round" stroke-linejoin="round"/>
<polygon points="263.0,349.0 256.6,356.7 269.4,356.7" fill="#a25bbd"/>
<polyline points="263.0,237.0 263.0,211.0 263.0,185.0 263.0,159.0" fill="none" stroke="#00c8d9" stroke-width="5" stroke-linecap="round" stroke-linejoin="round"/>
<polygon points="263.0,245.0 256.6,252.7 269.4,252.7" fill="#00c8d9"/>
<polyline points="263.0,133.0 263.0,107.0 263.0,81.0" fill="none" stroke="#ff9d00" stroke-width="5" stroke-linecap="round" stroke-linejoin="round"/>
<polygon points="263.0,141.0 256.6,148.7 269.4,148.7" fill="#ff9d00"/>
<polyline points="237.0,81.0 211.0,81.0 185.0,81.0" fill="none" stroke="#ff2d7a" stroke-width="5" stroke-linecap="round" stroke-linejoin="round"/>
<polygon points="245.0,81.0 252.7,87.4 252.7,74.6" fill="#ff2d7a"/>
<polyline points="159.0,81.0 133.0,81.0 107.0,81.0 81.0,81.0" fill="none" stroke="#ff3b4f" stroke-width="5" stroke-linecap="round" stroke-linejoin="round"/>
<polygon points="167.0,81.0 174.7,87.4 174.7,74.6" fill="#ff3b4f"/>
<polyline points="81.0,107.0 81.0,133.0" fill="none" stroke="#1ea7ff" stroke-width="5" stroke-linecap="round" stroke-linejoin="round"/>
<polygon points="81.0,99.0 87.4,91.3 74.6,91.3" fill="#1ea7ff"/>
<polyline points="81.0,159.0 81.0,185.0 81.0,211.0" fill="none" stroke="#ffe63b" stroke-width="5" stroke-linecap="round" stroke-linejoin="round"/>
<polygon points="81.0,151.0 87.4,143.3 74.6,143.3" fill="#ffe63b"/>
<polyline points="81.0,237.0 81.0,263.0 81.0,289.0 81.0,315.0 81.0,341.0" fill="none" stroke="#35c957" stroke-width="5" stroke-linecap="round" stroke-linejoin="round"/>
<polygon points="81.0,229.0 87.4,221.3 74.6,221.3" fill="#35c957"/>
<polyline points="107.0,341.0 133.0,341.0 159.0,341.0 185.0,341.0 211.0,341.0 237.0,341.0" fill="none" stroke="#a25bbd" stroke-width="5" stroke-linecap="round" stroke-linejoin="round"/>
<polygon points="99.0,341.0 91.3,334.6 91.3,347.4" fill="#a25bbd"/>
<polyline points="237.0,315.0 237.0,289.0 237.0,263.0 237.0,237.0" fill="none" stroke="#00c8d9" stroke-width="5" stroke-linecap="round" stroke-linejoin="round"/>
<polygon points="237.0,323.0 230.6,330.7 243.4,330.7" fill="#00c8d9"/>
<polyline points="237.0,211.0 237.0,185.0 237.0,159.0" fill="none" stroke="#ff9d00" stroke-width="5" stroke-linecap="round" stroke-linejoin="round"/>
<polygon points="237.0,219.0 230.6,226.7 243.4,226.7" fill="#ff9d00"/>
<polyline points="237.0,133.0 237.0,107.0 211.0,107.0 185.0,107.0" fill="none" stroke="#ff2d7a" stroke-width="5" stroke-linecap="round" stroke-linejoin="round"/>
<polygon points="237.0,141.0 230.6,148.7 243.4,148.7" fill="#ff2d7a"/>
<polyline points="159.0,107.0 133.0,107.0 107.0,107.0 107.0,133.0" fill="none" stroke="#ff3b4f" stroke-width="5" stroke-linecap="round" stroke-linejoin="round"/>
<polygon points="167.0,107.0 174.7,113.4 174.7,100.6" fill="#ff3b4f"/>
<polyline points="107.0,159.0 107.0,185.0 107.0,211.0 107.0,237.0" fill="none" stroke="#1ea7ff" stroke-width="5" stroke-linecap="round" stroke-linejoin="round"/>
<polygon points="107.0,151.0 113.4,143.3 100.6,143.3" fill="#1ea7ff"/>
<polyline points="107.0,263.0 107.0,289.0 107.0,315.0 133.0,315.0 159.0,315.0" fill="none" stroke="#ffe63b" stroke-width="5" stroke-linecap="round" stroke-linejoin="round"/>
<polygon points="107.0,255.0 113.4,247.3 100.6,247.3" fill="#ffe63b"/>
<polyline points="185.0,315.0 211.0,315.0 211.0,289.0 211.0,263.0" fill="none" stroke="#35c957" stroke-width="5" stroke-linecap="round" stroke-linejoin="round"/>
<polygon points="177.0,315.0 169.3,308.6 169.3,321.4" fill="#35c957"/>
<polyline points="211.0,237.0 211.0,211.0 211.0,185.0 211.0,159.0 211.0,133.0" fill="none" stroke="#a25bbd" stroke-width="5" stroke-linecap="round" stroke-linejoin="round"/>
<polygon points="211.0,245.0 204.6,252.7 217.4,252.7" fill="#a25bbd"/>
<polyline points="185.0,133.0 159.0,133.0 133.0,133.0" fill="none" stroke="#00c8d9" stroke-width="5" stroke-linecap="round" stroke-linejoin="round"/>
<polygon points="193.0,133.0 200.7,139.4 200.7,126.6" fill="#00c8d9"/>
<polyline points="133.0,159.0 133.0,185.0 133.0,211.0" fill="none" stroke="#ff9d00" stroke-width="5" stroke-linecap="round" stroke-linejoin="round"/>
<polygon points="133.0,151.0 139.4,143.3 126.6,143.3" fill="#ff9d00"/>
<polyline points="133.0,237.0 133.0,263.0 133.0,289.0" fill="none" stroke="#ff2d7a" stroke-width="5" stroke-linecap="round" stroke-linejoin="round"/>
<polygon points="133.0,229.0 139.4,221.3 126.6,221.3" fill="#ff2d7a"/>
<polyline points="159.0,289.0 185.0,289.0" fill="none" stroke="#ff3b4f" stroke-width="5" stroke-linecap="round" stroke-linejoin="round"/>
<polygon points="151.0,289.0 143.3,282.6 143.3,295.4" fill="#ff3b4f"/>
<polyline points="185.0,263.0 185.0,237.0" fill="none" stroke="#1ea7ff" stroke-width="5" stroke-linecap="round" stroke-linejoin="round"/>
<polygon points="185.0,271.0 178.6,278.7 191.4,278.7" fill="#1ea7ff"/>
<polyline points="185.0,211.0 185.0,185.0 185.0,159.0 159.0,159.0" fill="none" stroke="#ffe63b" stroke-width="5" stroke-linecap="round" stroke-linejoin="round"/>
<polygon points="185.0,219.0 178.6,226.7 191.4,226.7" fill="#ffe63b"/>
<polyline points="159.0,185.0 159.0,211.0" fill="none" stroke="#35c957" stroke-width="5" stroke-linecap="round" stroke-linejoin="round"/>
<polygon points="159.0,177.0 165.4,169.3 152.6,169.3" fill="#35c957"/>
<polyline points="159.0,237.0 159.0,263.0" fill="none" stroke="#a25bbd" stroke-width="5" stroke-linecap="round" stroke-linejoin="round"/>
<polygon points="159.0,229.0 165.4,221.3 152.6,221.3" fill="#a25bbd"/>
</svg>