<svg xmlns="http://www.w3.org/2000/svg" width="344" height="448" viewBox="0 0 344 448">
<rect width="100%" height="100%" fill="#171d2d"/>
<line x1="16" y1="16" x2="16" y2="432" stroke="#242b3d" stroke-width="1"/>
<line x1="42" y1="16" x2="42" y2="432" stroke="#242b3d" stroke-width="1"/>
<line x1="68" y1="16" x2="68" y2="432" stroke="#242b3d" stroke-width="1"/>
<line x1="94" y1="16" x2="94" y2="432" stroke="#242b3d" stroke-width="1"/>
<line x1="120" y1="16" x2="120" y2="432" stroke="#242b3d" stroke-width="1"/>
<line x1="146" y1="16" x2="146" y2="432" stroke="#242b3d" stroke-width="1"/>
<line x1="172" y1="16" x2="172" y2="432" stroke="#242b3d" stroke-width="1"/>
<line x1="198" y1="16" x2="198" y2="432" stroke="#242b3d" stroke-width="1"/>
<line x1="224" y1="16" x2="224" y2="432" stroke="#242b3d" stroke-width="1"/>
<line x1="250" y1="16" x2="250" y2="432" stroke="#242b3d" stroke-width="1"/>
<line x1="276" y1="16" x2="276" y2="432" stroke="#242b3d" stroke-width="1"/>
<line x1="302" y1="16" x2="302" y2="432" stroke="#242b3d" stroke-width="1"/>
<line x1="328" y1="16" x2="328" y2="432" stroke="#242b3d" stroke-width="1"/>
<line x1="16" y1="16" x2="328" y2="16" stroke="#242b3d" stroke-width="1"/>
<line x1="16" y1="42" x2="328" y2="42" stroke="#242b3d" stroke-width="1"/>
<line x1="16" y1="68" x2="328" y2="68" stroke="#242b3d" stroke-width="1"/>
<line x1="16" y1="94" x2="328" y2="94" stroke="#242b3d" stroke-width="1"/>
<line x1="16" y1="120" x2="328" y2="120" stroke="#242b3d" stroke-width="1"/>
<line x1="16" y1="146" x2="328" y2="146" stroke="#242b3d" stroke-width="1"/>
<line x1="16" y1="172" x2="328" y2="172" stroke="#242b3d" stroke-width="1"/>
<line x1="16" y1="198" x2="328" y2="198" stroke="#242b3d" stroke-width="1"/>
<line x1="16" y1="224" x2="328" y2="224" stroke="#242b3d" stroke-width="1"/>
<line x1="16" y1="250" x2="328" y2="250" stroke="#242b3d" stroke-width="1"/>
<line x1="16" y1="276" x2="328" y2="276" stroke="#242b3d" stroke-width="1"/>
<line x1="16" y1="302" x2="328" y2="302" stroke="#242b3d" stroke-width="1"/>
<line x1="16" y1="328" x2="328" y2="328" stroke="#242b3d" stroke-width="1"/>
<line x1="16" y1="354" x2="328" y2="354" stroke="#242b3d" stroke-width="1"/>
<line x1="16" y1="380" x2="328" y2="380" stroke="#242b3d" stroke-width="1"/>
<line x1="16" y1="406" x2="328" y2="406" stroke="#242b3d" stroke-width="1"/>
<line x1="16" y1="432" x2="328" y2="432" stroke="#242b3d" stroke-width="1"/>
<polyline points="29.0,419.0 55.0,419.0 81.0,419.0 107.0,419.0 133.0,419.0" fill="none" stroke="#ff3b4f" stroke-width="5" stroke-linecap="round" stroke-linejoin="round"/>
<polygon points="21.0,419.0 13.3,412.6 13.3,425.4" fill="#ff3b4f"/>
<polyline points="159.0,419.0 185.0,419.0 211.0,419.0 237.0,419.0 263.0,419.0" fill="none" stroke="#1ea7ff" stroke-width="5" stroke-linecap="round" stroke-linejoin="round"/>
<polygon points="151.0,419.0 143.3,412.6 143.3,425.4" fill="#1ea7ff"/>
<polyline points="289.0,419.0 315.0,419.0 315.0,393.0 315.0,367.0" fill="none" stroke="#ffe63b" stroke-width="5" stroke-linecap="round" stroke-linejoin="round"/>
<polygon points="281.0,419.0 273.3,412.6 273.3,425.4" fill="#ffe63b"/>
<polyline points="315.0,341.0 315.0,315.0 315.0,289.0" fill="none" stroke="#35c957" stroke-width="5" stroke-linecap="round" stroke-linejoin="round"/>
<polygon points="315.0,349.0 308.6,356.7 321.4,356.7" fill="#35c957"/>
<polyline points="289.0,289.0 263.0,289.0" fill="none" stroke="#a25bbd" stroke-width="5" stroke-linecap="round" stroke-linejoin="round"/>
<polygon points="297.0,289.0 304.7,295.4 304.7,282.6" fill="#a25bbd"/>
<polyline points="237.0,289.0 211.0,289.0 185.0,289.0" fill="none" stroke="#00c8d9" stroke-width="5" stroke-linecap="round" stroke-linejoin="round"/>
<polygon points="245.0,289.0 252.7,295.4 252.7,282.6" fill="#00c8d9"/>
<polyline points="159.0,289.0 133.0,289.0 107.0,289.0" fill="none" stroke="#ff9d00" stroke-width="5" stroke-linecap="round" stroke-linejoin="round"/>
<polygon points="167.0,289.0 174.7,295.4 174.7,282.6" fill="#ff9d00"/>
<polyline points="81.0,289.0 55.0,289.0 29.0,289.0 29.0,315.0 29.0,341.0" fill="none" stroke="#ff2d7a" stroke-width="5" stroke-linecap="round" stroke-linejoin="round"/>
<polygon points="89.0,289.0 96.7,295.4 96.7,282.6" fill="#ff2d7a"/>
<polyline points="29.0,367.0 29.0,393.0" fill="none" stroke="#ff3b4f" stroke-width="5" stroke-linecap="round" stroke-linejoin="round"/>
<polygon points="29.0,359.0 35.4,351.3 22.6,351.3" fill="#ff3b4f"/>
<polyline points="55.0,393.0 81.0,393.0 107.0,393.0 133.0,393.0 159.0,393.0" fill="none" stroke="#1ea7ff" stroke-width="5" stroke-linecap="round" stroke-linejoin="round"/>
<polygon points="47.0,393.0 39.3,386.6 39.3,399.4" fill="#1ea7ff"/>
<polyline points="185.0,393.0 211.0,393.0 237.0,393.0 263.0,393.0 289.0,393.0" fill="none" stroke="#ffe63b" stroke-width="5" stroke-linecap="round" stroke-linejoin="round"/>
<polygon points="177.0,393.0 169.3,386.6 169.3,399.4" fill="#ffe63b"/>
<polyline points="289.0,367.0 289.0,341.0 289.0,315.0" fill="none" stroke="#35c957" stroke-width="5" stroke-linecap="round" stroke-linejoin="round"/>
<polygon points="289.0,375.0 282.6,382.7 295.4,382.7" fill="#35c957"/>
<polyline points="263.0,315.0 237.0,315.0 211.0,315.0 185.0,315.0 159.0,315.0" fill="none" stroke="#a25bbd" stroke-width="5" stroke-linecap="round" stroke-linejoin="round"/>
<polygon points="271.0,315.0 278.7,321.4 278.7,308.6" fill="#a25bbd"/>
<polyline points="133.0,315.0 107.0,315.0 81.0,315.0 55.0,315.0" fill="none" stroke="#00c8d9" stroke-width="5" stroke-linecap="round" stroke-linejoin="round"/>
<polygon points="141.0,315.0 148.7,321.4 148.7,308.6" fill="#00c8d9"/>
<polyline points="55.0,341.0 55.0,367.0 81.0,367.0 107.0,367.0" fill="none" stroke="#ff9d00" stroke-width="5" stroke-linecap="round" stroke-linejoin="round"/>
<polygon points="55.0,333.0 61.4,325.3 48.6,325.3" fill="#ff9d00"/>
<polyline points="133.0,367.0 159.0,367.0" fill="none" stroke="#ff2d7a" stroke-width="5" stroke-linecap="round" stroke-linejoin="round"/>
<polygon points="125.0,367.0 117.3,360.6 117.3,373.4" fill="#ff2d7a"/>
<polyline points="185.0,367.0 211.0,367.0 237.0,367.0 263.0,367.0 263.0,341.0" fill="none" stroke="#ff3b4f" stroke-width="5" stroke-linecap="round" stroke-linejoin="round"/>
<polygon points="177.0,367.0 169.3,360.6 169.3,373.4" fill="#ff3b4f"/>
<polyline points="237.0,341.0 211.0,341.0" fill="none" stroke="#1ea7ff" stroke-width="5" stroke-linecap="round" stroke-linejoin="round"/>
<polygon points="245.0,341.0 252.7,347.4 252.7,334.6" fill="#1ea7ff"/>
<polyline points="185.0,341.0 159.0,341.0" fill="none" stroke="#ffe63b" stroke-width="5" stroke-linecap="round" stroke-linejoin="round"/>
<polygon points="193.0,341.0 200.7,347.4 200.7,334.6" fill="#ffe63b"/>
<polyline points="133.0,341.0 107.0,341.0 81.0,341.0" fill="none" stroke="#35c957" stroke-width="5" stroke-linecap="round" stroke-linejoin="round"/>
<polygon points="141.0,341.0 148.7,347.4 148.7,334.6" fill="#35c957"/>
<polyline points="29.0,263.0 55.0,263.0 81.0,263.0 107.0,263.0 133.0,263.0" fill="none" stroke="#00c8d9" stroke-width="5" stroke-linecap="round" stroke-linejoin="round"/>
<polygon points="21.0,263.0 13.3,256.6 13.3,269.4" fill="#00c8d9"/>
<polyline points="159.0,263.0 185.0,263.0 211.0,263.0 237.0,263.0" fill="none" stroke="#ff9d00" stroke-width="5" stroke-linecap="round" stroke-linejoin="round"/>
<polygon points="151.0,263.0 143.3,256.6 143.3,269.4" fill="#ff9d00"/>
<polyline points="263.0,263.0 289.0,263.0 315.0,263.0 315.0,237.0 315.0,211.0" fill="none" stroke="#ff2d7a" stroke-width="5" stroke-linecap="round" stroke-linejoin="round"/>
<polygon points="255.0,263.0 247.3,256.6 247.3,269.4" fill="#ff2d7a"/>
<polyline points="315.0,185.0 315.0,159.0 289.0,159.0" fill="none" stroke="#ff3b4f" stroke-width="5" stroke-linecap="round" stroke-linejoin="round"/>
<polygon points="315.0,193.0 308.6,200.7 321.4,200.7" fill="#ff3b4f"/>
<polyline points="263.0,159.0 237.0,159.0 211.0,159.0 185.0,159.0 159.0,159.0" fill="none" stroke="#1ea7ff" stroke-width="5" stroke-linecap="round" stroke-linejoin="round"/>
<polygon points="271.0,159.0 278.7,165.4 278.7,152.6" fill="#1ea7ff"/>
<polyline points="133.0,159.0 107.0,159.0" fill="none" stroke="#ffe63b" stroke-width="5" stroke-linecap="round" stroke-linejoin="round"/>
<polygon points="141.0,159.0 148.7,165.4 148.7,152.6" fill="#ffe63b"/>
<polyline points="81.0,159.0 55.0,159.0 29.0,159.0 29.0,185.0" fill="none" stroke="#35c957" stroke-width="5" stroke-linecap="round" stroke-linejoin="round"/>
<polygon points="89.0,159.0 96.7,165.4 96.7,152.6" fill="#35c957"/>
<polyline points="29.0,211.0 29.0,237.0 55.0,237.0 81.0,237.0 107.0,237.0" fill="none" stroke="#a25bbd" stroke-width="5" stroke-linecap="round" stroke-linejoin="round"/>
<polygon points="29.0,203.0 35.4,195.3 22.6,195.3" fill="#a25bbd"/>
<polyline points="133.0,237.0 159.0,237.0 185.0,237.0 211.0,237.0 237.0,237.0" fill="none" stroke="#00c8d9" stroke-width="5" stroke-linecap="round" stroke-linejoin="round"/>
<polygon points="125.0,237.0 117.3,230.6 117.3,243.4" fill="#00c8d9"/>
<polyline points="263.0,237.0 289.0,237.0 289.0,211.0 289.0,185.0" fill="none" stroke="#ff9d00" stroke-width="5" stroke-linecap="round" stroke-linejoin="round"/>
<polygon points="255.0,237.0 247.3,230.6 247.3,243.4" fill="#ff9d00"/>
<polyline points="263.0,185.0 237.0,185.0 211.0,185.0" fill="none" stroke="#ff2d7a" stroke-width="5" stroke-linecap="round" stroke-linejoin="round"/>
<polygon points="271.0,185.0 278.7,191.4 278.7,178.6" fill="#ff2d7a"/>
<polyline points="185.0,185.0 159.0,185.0 133.0,185.0 107.0,185.0" fill="none" stroke="#ff3b4f" stroke-width="5" stroke-linecap="round" stroke-linejoin="round"/>
<polygon points="193.0,185.0 200.7,191.4 200.7,178.6" fill="#ff3b4f"/>
<polyline points="81.0,185.0 55.0,185.0 55.0,211.0 81.0,211.0" fill="none" stroke="#1ea7ff" stroke-width="5" stroke-linecap="round" stroke-linejoin="round"/>
<polygon points="89.0,185.0 96.7,191.4 96.7,178.6" fill="#1ea7ff"/>
<polyline points="107.0,211.0 133.0,211.0 159.0,211.0 185.0,211.0 211.0,211.0" fill="none" stroke="#ffe63b" stroke-width="5" stroke-linecap="round" stroke-linejoin="round"/>
<polygon points="99.0,211.0 91.3,204.6 91.3,217.4" fill="#ffe63b"/>
<polyline points="237.0,211.0 263.0,211.0" fill="none" stroke="#35c957" stroke-width="5" stroke-linecap="round" stroke-linejoin="round"/>
<polygon points="229.0,211.0 221.3,204.6 221.3,217.4" fill="#35c957"/>
<polyline points="29.0,133.0 55.0,133.0 81.0,133.0 107.0,133.0 133.0,133.0" fill="none" stroke="#00c8d9" stroke-width="5" stroke-linecap="round" stroke-linejoin="round"/>
<polygon points="21.0,133.0 13.3,126.6 13.3,139.4" fill="#00c8d9"/>
<polyline points="159.0,133.0 185.0,133.0" fill="none" stroke="#ff9d00" stroke-width="5" stroke-linecap="round" stroke-linejoin="round"/>
<polygon points="151.0,133.0 143.3,126.6 143.3,139.4" fill="#ff9d00"/>
<polyline points="211.0,133.0 237.0,133.0 263.0,133.0 289.0,133.0 315.0,133.0" fill="none" stroke="#ff2d7a" stroke-width="5" stroke-linecap="round" stroke-linejoin="round"/>
<polygon points="203.0,133.0 195.3,126.6 195.3,139.4" fill="#ff2d7a"/>
<polyline points="315.0,107.0 315.0,81.0 315.0,55.0 315.0,29.0" fill="none" stroke="#ff3b4f" stroke-width="5" stroke-linecap="round" stroke-linejoin="round"/>
<polygon points="315.0,115.0 308.6,122.7 321.4,122.7" fill="#ff3b4f"/>
<polyline points="289.0,29.0 263.0,29.0 237.0,29.0 211.0,29.0 185.0,29.0" fill="none" stroke="#1ea7ff" stroke-width="5" stroke-linecap="round" stroke-linejoin="round"/>
<polygon points="297.0,29.0 304.7,35.4 304.7,22.6" fill="#1ea7ff"/>
<polyline points="159.0,29.0 133.0,29.0 107.0,29.0" fill="none" stroke="#ffe63b" stroke-width="5" stroke-linecap="round" stroke-linejoin="round"/>
<polygon points="167.0,29.0 174.7,35.4 174.7,22.6" fill="#ffe63b"/>
<polyline points="81.0,29.0 55.0,29.0 29.0,29.0" fill="none" stroke="#35c957" stroke-width="5" stroke-linecap="round" stroke-linejoin="round"/>
<polygon points="89.0,29.0 96.7,35.4 96.7,22.6" fill="#35c957"/>
<polyline points="29.0,55.0 29.0,81.0 29.0,107.0 55.0,107.0" fill="none" stroke="#a25bbd" stroke-width="5" stroke-linecap="round" stroke-linejoin="round"/>
<polygon points="29.0,47.0 35.4,39.3 22.6,39.3" fill="#a25bbd"/>
<polyline points="81.0,107.0 107.0,107.0 133.0,107.0 159.0,107.0 185.0,107.0" fill="none" stroke="#00c8d9" stroke-width="5" stroke-linecap="round" stroke-linejoin="round"/>
<polygon points="73.0,107.0 65.3,100.6 65.3,113.4" fill="#00c8d9"/>
<polyline points="211.0,107.0 237.0,107.0" fill="none" stroke="#ff9d00" stroke-width="5" stroke-linecap="round" stroke-linejoin="round"/>
<polygon points="203.0,107.0 195.3,100.6 195.3,113.4" fill="#ff9d00"/>
<polyline points="263.0,107.0 289.0,107.0 289.0,81.0 289.0,55.0 263.0,55.0" fill="none" stroke="#ff2d7a" stroke-width="5" stroke-linecap="round" stroke-linejoin="round"/>
<polygon points="255.0,107.0 247.3,100.6 247.3,113.4" fill="#ff2d7a"/>
<polyline points="237.0,55.0 211.0,55.0 185.0,55.0 159.0,55.0 133.0,55.0" fill="none" stroke="#ff3b4f" stroke-width="5" stroke-linecap="round" stroke-linejoin="round"/>
<polygon points="245.0,55.0 252.7,61.4 252.7,48.6" fill="#ff3b4f"/>
<polyline points="107.0,55.0 81.0,55.0 55.0,55.0 55.0,81.0" fill="none" stroke="#1ea7ff" stroke-width="5" stroke-linecap="round" stroke-linejoin="round"/>
<polygon points="115.0,55.0 122.7,61.4 122.7,48.6" fill="#1ea7ff"/>
<polyline points="81.0,81.0 107.0,81.0" fill="none" stroke="#ffe63b" stroke-width="5" stroke-linecap="round" stroke-linejoin="round"/>
<polygon points="73.0,81.0 65.3,74.6 65.3,87.4" fill="#ffe63b"/>
<polyline points="133.0,81.0 159.0,81.0 185.0,81.0 211.0,81.0" fill="none" stroke="#35c957" stroke-width="5" stroke-linecap="round" stroke-linejoin="round"/>
<polygon points="125.0,81.0 117.3,74.6 117.3,87.4" fill="#35c957"/>
<polyline points="237.0,81.0 263.0,81.0" fill="none" stroke="#a25bbd" stroke-width="5" stroke-linecap="round" stroke-linejoin="round"/>
<polygon points="229.0,81.0 221.3,74.6 221.3,87.4" fill="#a25bbd"/>
</svg>