<svg xmlns="http://www.w3.org/2000/svg" width="656" height="916" viewBox="0 0 656 916">
<rect width="100%" height="100%" fill="#171d2d"/>
<line x1="16" y1="16" x2="16" y2="900" stroke="#242b3d" stroke-width="1"/>
<line x1="42" y1="16" x2="42" y2="900" stroke="#242b3d" stroke-width="1"/>
<line x1="68" y1="16" x2="68" y2="900" stroke="#242b3d" stroke-width="1"/>
<line x1="94" y1="16" x2="94" y2="900" stroke="#242b3d" stroke-width="1"/>
<line x1="120" y1="16" x2="120" y2="900" stroke="#242b3d" stroke-width="1"/>
<line x1="146" y1="16" x2="146" y2="900" stroke="#242b3d" stroke-width="1"/>
<line x1="172" y1="16" x2="172" y2="900" stroke="#242b3d" stroke-width="1"/>
<line x1="198" y1="16" x2="198" y2="900" stroke="#242b3d" stroke-width="1"/>
<line x1="224" y1="16" x2="224" y2="900" stroke="#242b3d" stroke-width="1"/>
<line x1="250" y1="16" x2="250" y2="900" stroke="#242b3d" stroke-width="1"/>
<line x1="276" y1="16" x2="276" y2="900" stroke="#242b3d" stroke-width="1"/>
<line x1="302" y1="16" x2="302" y2="900" stroke="#242b3d" stroke-width="1"/>
<line x1="328" y1="16" x2="328" y2="900" stroke="#242b3d" stroke-width="1"/>
<line x1="354" y1="16" x2="354" y2="900" stroke="#242b3d" stroke-width="1"/>
<line x1="380" y1="16" x2="380" y2="900" stroke="#242b3d" stroke-width="1"/>
<line x1="406" y1="16" x2="406" y2="900" stroke="#242b3d" stroke-width="1"/>
<line x1="432" y1="16" x2="432" y2="900" stroke="#242b3d" stroke-width="1"/>
<line x1="458" y1="16" x2="458" y2="900" stroke="#242b3d" stroke-width="1"/>
<line x1="484" y1="16" x2="484" y2="900" stroke="#242b3d" stroke-width="1"/>
<line x1="510" y1="16" x2="510" y2="900" stroke="#242b3d" stroke-width="1"/>
<line x1="536" y1="16" x2="536" y2="900" stroke="#242b3d" stroke-width="1"/>
<line x1="562" y1="16" x2="562" y2="900" stroke="#242b3d" stroke-width="1"/>
<line x1="588" y1="16" x2="588" y2="900" stroke="#242b3d" stroke-width="1"/>
<line x1="614" y1="16" x2="614" y2="900" stroke="#242b3d" stroke-width="1"/>
<line x1="640" y1="16" x2="640" y2="900" stroke="#242b3d" stroke-width="1"/>
<line x1="16" y1="16" x2="640" y2="16" stroke="#242b3d" stroke-width="1"/>
<line x1="16" y1="42" x2="640" y2="42" stroke="#242b3d" stroke-width="1"/>
<line x1="16" y1="68" x2="640" y2="68" stroke="#242b3d" stroke-width="1"/>
<line x1="16" y1="94" x2="640" y2="94" stroke="#242b3d" stroke-width="1"/>
<line x1="16" y1="120" x2="640" y2="120" stroke="#242b3d" stroke-width="1"/>
<line x1="16" y1="146" x2="640" y2="146" stroke="#242b3d" stroke-width="1"/>
<line x1="16" y1="172" x2="640" y2="172" stroke="#242b3d" stroke-width="1"/>
<line x1="16" y1="198" x2="640" y2="198" stroke="#242b3d" stroke-width="1"/>
<line x1="16" y1="224" x2="640" y2="224" stroke="#242b3d" stroke-width="1"/>
<line x1="16" y1="250" x2="640" y2="250" stroke="#242b3d" stroke-width="1"/>
<line x1="16" y1="276" x2="640" y2="276" stroke="#242b3d" stroke-width="1"/>
<line x1="16" y1="302" x2="640" y2="302" stroke="#242b3d" stroke-width="1"/>
<line x1="16" y1="328" x2="640" y2="328" stroke="#242b3d" stroke-width="1"/>
<line x1="16" y1="354" x2="640" y2="354" stroke="#242b3d" stroke-width="1"/>
<line x1="16" y1="380" x2="640" y2="380" stroke="#242b3d" stroke-width="1"/>
<line x1="16" y1="406" x2="640" y2="406" stroke="#242b3d" stroke-width="1"/>
<line x1="16" y1="432" x2="640" y2="432" stroke="#242b3d" stroke-width="1"/>
<line x1="16" y1="458" x2="640" y2="458" stroke="#242b3d" stroke-width="1"/>
<line x1="16" y1="484" x2="640" y2="484" stroke="#242b3d" stroke-width="1"/>
<line x1="16" y1="510" x2="640" y2="510" stroke="#242b3d" stroke-width="1"/>
<line x1="16" y1="536" x2="640" y2="536" stroke="#242b3d" stroke-width="1"/>
<line x1="16" y1="562" x2="640" y2="562" stroke="#242b3d" stroke-width="1"/>
<line x1="16" y1="588" x2="640" y2="588" stroke="#242b3d" stroke-width="1"/>
<line x1="16" y1="614" x2="640" y2="614" stroke="#242b3d" stroke-width="1"/>
<line x1="16" y1="640" x2="640" y2="640" stroke="#242b3d" stroke-width="1"/>
<line x1="16" y1="666" x2="640" y2="666" stroke="#242b3d" stroke-width="1"/>
<line x1="16" y1="692" x2="640" y2="692" stroke="#242b3d" stroke-width="1"/>
<line x1="16" y1="718" x2="640" y2="718" stroke="#242b3d" stroke-width="1"/>
<line x1="16" y1="744" x2="640" y2="744" stroke="#242b3d" stroke-width="1"/>
<line x1="16" y1="770" x2="640" y2="770" stroke="#242b3d" stroke-width="1"/>
<line x1="16" y1="796" x2="640" y2="796" stroke="#242b3d" stroke-width="1"/>
<line x1="16" y1="822" x2="640" y2="822" stroke="#242b3d" stroke-width="1"/>
<line x1="16" y1="848" x2="640" y2="848" stroke="#242b3d" stroke-width="1"/>
<line x1="16" y1="874" x2="640" y2="874" stroke="#242b3d" stroke-width="1"/>
<line x1="16" y1="900" x2="640" y2="900" stroke="#242b3d" stroke-width="1"/>
<polyline points="133.0,783.0 133.0,757.0 159.0,757.0 159.0,731.0 185.0,731.0 185.0,705.0 159.0,705.0 159.0,679.0" fill="none" stroke="#ff3b4f" stroke-width="5" stroke-linecap="round" stroke-linejoin="round"/>
<polygon points="133.0,791.0 126.6,798.7 139.4,798.7" fill="#ff3b4f"/>
<polyline points="523.0,159.0 523.0,185.0 497.0,185.0 497.0,211.0 471.0,211.0 471.0,237.0 497.0,237.0 497.0,263.0" fill="none" stroke="#1ea7ff" stroke-width="5" stroke-linecap="round" stroke-linejoin="round"/>
<polygon points="523.0,151.0 529.4,143.3 516.6,143.3" fill="#1ea7ff"/>
<polyline points="133.0,445.0 107.0,445.0 107.0,419.0 81.0,419.0 81.0,393.0 107.0,393.0 107.0,367.0" fill="none" stroke="#ffe63b" stroke-width="5" stroke-linecap="round" stroke-linejoin="round"/>
<polygon points="141.0,445.0 148.7,451.4 148.7,438.6" fill="#ffe63b"/>
<polyline points="497.0,471.0 523.0,471.0 523.0,497.0 549.0,497.0 549.0,523.0 523.0,523.0 523.0,549.0" fill="none" stroke="#35c957" stroke-width="5" stroke-linecap="round" stroke-linejoin="round"/>
<polygon points="489.0,471.0 481.3,464.6 481.3,477.4" fill="#35c957"/>
<polyline points="185.0,835.0 185.0,861.0 211.0,861.0 211.0,835.0 237.0,835.0 237.0,809.0" fill="none" stroke="#a25bbd" stroke-width="5" stroke-linecap="round" stroke-linejoin="round"/>
<polygon points="185.0,827.0 191.4,819.3 178.6,819.3" fill="#a25bbd"/>
<polyline points="367.0,835.0 393.0,835.0 393.0,809.0 419.0,809.0 419.0,783.0 445.0,783.0" fill="none" stroke="#00c8d9" stroke-width="5" stroke-linecap="round" stroke-linejoin="round"/>
<polygon points="359.0,835.0 351.3,828.6 351.3,841.4" fill="#00c8d9"/>
<polyline points="445.0,679.0 445.0,653.0 419.0,653.0 419.0,627.0 393.0,627.0 393.0,601.0" fill="none" stroke="#ff9d00" stroke-width="5" stroke-linecap="round" stroke-linejoin="round"/>
<polygon points="445.0,687.0 438.6,694.7 451.4,694.7" fill="#ff9d00"/>
<polyline points="289.0,783.0 263.0,783.0 263.0,757.0 289.0,757.0 289.0,731.0 315.0,731.0" fill="none" stroke="#ff2d7a" stroke-width="5" stroke-linecap="round" stroke-linejoin="round"/>
<polygon points="297.0,783.0 304.7,789.4 304.7,776.6" fill="#ff2d7a"/>
<polyline points="471.0,81.0 471.0,55.0 445.0,55.0 445.0,81.0 419.0,81.0 419.0,107.0" fill="none" stroke="#ff3b4f" stroke-width="5" stroke-linecap="round" stroke-linejoin="round"/>
<polygon points="471.0,89.0 464.6,96.7 477.4,96.7" fill="#ff3b4f"/>
<polyline points="237.0,81.0 211.0,81.0 211.0,107.0 185.0,107.0 185.0,133.0 159.0,133.0" fill="none" stroke="#1ea7ff" stroke-width="5" stroke-linecap="round" stroke-linejoin="round"/>
<polygon points="245.0,81.0 252.7,87.4 252.7,74.6" fill="#1ea7ff"/>
<polyline points="159.0,289.0 159.0,315.0 133.0,315.0 133.0,289.0 107.0,289.0 107.0,263.0" fill="none" stroke="#ffe63b" stroke-width="5" stroke-linecap="round" stroke-linejoin="round"/>
<polygon points="159.0,281.0 165.4,273.3 152.6,273.3" fill="#ffe63b"/>
<polyline points="315.0,133.0 341.0,133.0 341.0,159.0 367.0,159.0 367.0,185.0 393.0,185.0" fill="none" stroke="#35c957" stroke-width="5" stroke-linecap="round" stroke-linejoin="round"/>
<polygon points="307.0,133.0 299.3,126.6 299.3,139.4" fill="#35c957"/>
<polyline points="55.0,367.0 29.0,367.0 29.0,393.0 55.0,393.0 55.0,419.0 29.0,419.0" fill="none" stroke="#a25bbd" stroke-width="5" stroke-linecap="round" stroke-linejoin="round"/>
<polygon points="63.0,367.0 70.7,373.4 70.7,360.6" fill="#a25bbd"/>
<polyline points="55.0,549.0 55.0,575.0 81.0,575.0 81.0,601.0 107.0,601.0 107.0,627.0" fill="none" stroke="#00c8d9" stroke-width="5" stroke-linecap="round" stroke-linejoin="round"/>
<polygon points="55.0,541.0 61.4,533.3 48.6,533.3" fill="#00c8d9"/>
<polyline points="237.0,627.0 263.0,627.0 263.0,601.0 289.0,601.0 289.0,575.0 315.0,575.0" fill="none" stroke="#ff9d00" stroke-width="5" stroke-linecap="round" stroke-linejoin="round"/>
<polygon points="229.0,627.0 221.3,620.6 221.3,633.4" fill="#ff9d00"/>
<polyline points="107.0,705.0 107.0,731.0 81.0,731.0 81.0,705.0 55.0,705.0 55.0,679.0" fill="none" stroke="#ff2d7a" stroke-width="5" stroke-linecap="round" stroke-linejoin="round"/>
<polygon points="107.0,697.0 113.4,689.3 100.6,689.3" fill="#ff2d7a"/>
<polyline points="523.0,393.0 523.0,367.0 549.0,367.0 549.0,341.0 575.0,341.0 575.0,315.0 601.0,315.0 601.0,289.0" fill="none" stroke="#ff3b4f" stroke-width="5" stroke-linecap="round" stroke-linejoin="round"/>
<polygon points="523.0,401.0 516.6,408.7 529.4,408.7" fill="#ff3b4f"/>
<polyline points="341.0,367.0 315.0,367.0 315.0,341.0 289.0,341.0 289.0,315.0 263.0,315.0" fill="none" stroke="#1ea7ff" stroke-width="5" stroke-linecap="round" stroke-linejoin="round"/>
<polygon points="349.0,367.0 356.7,373.4 356.7,360.6" fill="#1ea7ff"/>
<polyline points="263.0,237.0 263.0,211.0 237.0,211.0 237.0,185.0 211.0,185.0 211.0,211.0" fill="none" stroke="#ffe63b" stroke-width="5" stroke-linecap="round" stroke-linejoin="round"/>
<polygon points="263.0,245.0 256.6,252.7 269.4,252.7" fill="#ffe63b"/>
<polyline points="419.0,315.0 445.0,315.0 445.0,289.0 419.0,289.0 393.0,289.0 393.0,263.0" fill="none" stroke="#35c957" stroke-width="5" stroke-linecap="round" stroke-linejoin="round"/>
<polygon points="411.0,315.0 403.3,308.6 403.3,321.4" fill="#35c957"/>
<polyline points="367.0,653.0 367.0,627.0 367.0,601.0 367.0,575.0 367.0,549.0 367.0,523.0 393.0,523.0 419.0,523.0 445.0,523.0" fill="none" stroke="#a25bbd" stroke-width="5" stroke-linecap="round" stroke-linejoin="round"/>
<polygon points="367.0,661.0 360.6,668.7 373.4,668.7" fill="#a25bbd"/>
<polyline points="601.0,159.0 601.0,185.0 601.0,211.0 601.0,237.0 601.0,263.0 575.0,263.0 549.0,263.0 523.0,263.0 523.0,289.0 523.0,315.0 523.0,341.0" fill="none" stroke="#00c8d9" stroke-width="5" stroke-linecap="round" stroke-linejoin="round"/>
<polygon points="601.0,151.0 607.4,143.3 594.6,143.3" fill="#00c8d9"/>
<polyline points="601.0,549.0 601.0,575.0 601.0,601.0 601.0,627.0 601.0,653.0 575.0,653.0 549.0,653.0 549.0,627.0 549.0,601.0" fill="none" stroke="#ff9d00" stroke-width="5" stroke-linecap="round" stroke-linejoin="round"/>
<polygon points="601.0,541.0 607.4,533.3 594.6,533.3" fill="#ff9d00"/>
<polyline points="445.0,211.0 419.0,211.0 393.0,211.0 367.0,211.0 341.0,211.0 315.0,211.0 315.0,237.0 315.0,263.0 315.0,289.0" fill="none" stroke="#ff2d7a" stroke-width="5" stroke-linecap="round" stroke-linejoin="round"/>
<polygon points="453.0,211.0 460.7,217.4 460.7,204.6" fill="#ff2d7a"/>
<polyline points="289.0,705.0 315.0,705.0 341.0,705.0 341.0,679.0 341.0,653.0 341.0,627.0 341.0,601.0 341.0,575.0" fill="none" stroke="#ff3b4f" stroke-width="5" stroke-linecap="round" stroke-linejoin="round"/>
<polygon points="281.0,705.0 273.3,698.6 273.3,711.4" fill="#ff3b4f"/>
<polyline points="393.0,159.0 393.0,133.0 393.0,107.0 367.0,107.0 341.0,107.0 315.0,107.0 289.0,107.0 263.0,107.0" fill="none" stroke="#1ea7ff" stroke-width="5" stroke-linecap="round" stroke-linejoin="round"/>
<polygon points="393.0,167.0 386.6,174.7 399.4,174.7" fill="#1ea7ff"/>
<polyline points="341.0,731.0 367.0,731.0 393.0,731.0 393.0,705.0 393.0,679.0 393.0,653.0" fill="none" stroke="#ffe63b" stroke-width="5" stroke-linecap="round" stroke-linejoin="round"/>
<polygon points="333.0,731.0 325.3,724.6 325.3,737.4" fill="#ffe63b"/>
<polyline points="289.0,263.0 289.0,237.0 289.0,211.0 289.0,185.0 289.0,159.0 263.0,159.0 237.0,159.0 211.0,159.0" fill="none" stroke="#35c957" stroke-width="5" stroke-linecap="round" stroke-linejoin="round"/>
<polygon points="289.0,271.0 282.6,278.7 295.4,278.7" fill="#35c957"/>
<polyline points="341.0,549.0 341.0,523.0 341.0,497.0 367.0,497.0 393.0,497.0 419.0,497.0" fill="none" stroke="#a25bbd" stroke-width="5" stroke-linecap="round" stroke-linejoin="round"/>
<polygon points="341.0,557.0 334.6,564.7 347.4,564.7" fill="#a25bbd"/>
<polyline points="549.0,679.0 575.0,679.0 601.0,679.0 601.0,705.0 601.0,731.0 601.0,757.0" fill="none" stroke="#00c8d9" stroke-width="5" stroke-linecap="round" stroke-linejoin="round"/>
<polygon points="541.0,679.0 533.3,672.6 533.3,685.4" fill="#00c8d9"/>
<polyline points="367.0,289.0 367.0,263.0 367.0,237.0 393.0,237.0 419.0,237.0 445.0,237.0" fill="none" stroke="#ff9d00" stroke-width="5" stroke-linecap="round" stroke-linejoin="round"/>
<polygon points="367.0,297.0 360.6,304.7 373.4,304.7" fill="#ff9d00"/>
<polyline points="55.0,731.0 55.0,757.0 55.0,783.0 55.0,809.0 81.0,809.0 107.0,809.0" fill="none" stroke="#ff2d7a" stroke-width="5" stroke-linecap="round" stroke-linejoin="round"/>
<polygon points="55.0,723.0 61.4,715.3 48.6,715.3" fill="#ff2d7a"/>
<polyline points="549.0,809.0 575.0,809.0 601.0,809.0 601.0,835.0 601.0,861.0" fill="none" stroke="#ff3b4f" stroke-width="5" stroke-linecap="round" stroke-linejoin="round"/>
<polygon points="541.0,809.0 533.3,802.6 533.3,815.4" fill="#ff3b4f"/>
<polyline points="445.0,627.0 445.0,601.0 445.0,575.0 445.0,549.0 419.0,549.0 393.0,549.0" fill="none" stroke="#1ea7ff" stroke-width="5" stroke-linecap="round" stroke-linejoin="round"/>
<polygon points="445.0,635.0 438.6,642.7 451.4,642.7" fill="#1ea7ff"/>
<polyline points="315.0,757.0 341.0,757.0 367.0,757.0 393.0,757.0 419.0,757.0 419.0,731.0 419.0,705.0 419.0,679.0" fill="none" stroke="#ffe63b" stroke-width="5" stroke-linecap="round" stroke-linejoin="round"/>
<polygon points="307.0,757.0 299.3,750.6 299.3,763.4" fill="#ffe63b"/>
<polyline points="575.0,159.0 575.0,185.0 575.0,211.0 575.0,237.0 549.0,237.0 523.0,237.0" fill="none" stroke="#35c957" stroke-width="5" stroke-linecap="round" stroke-linejoin="round"/>
<polygon points="575.0,151.0 581.4,143.3 568.6,143.3" fill="#35c957"/>
<polyline points="601.0,133.0 575.0,133.0 549.0,133.0 549.0,159.0 549.0,185.0 549.0,211.0" fill="none" stroke="#a25bbd" stroke-width="5" stroke-linecap="round" stroke-linejoin="round"/>
<polygon points="609.0,133.0 616.7,139.4 616.7,126.6" fill="#a25bbd"/>
<polyline points="523.0,445.0 497.0,445.0 471.0,445.0 445.0,445.0 419.0,445.0 393.0,445.0 393.0,471.0 367.0,471.0" fill="none" stroke="#ff3b4f" stroke-width="5" stroke-linecap="round" stroke-linejoin="round"/>
<polygon points="531.0,445.0 538.7,451.4 538.7,438.6" fill="#ff3b4f"/>
<polyline points="133.0,835.0 133.0,809.0 159.0,809.0 159.0,783.0 185.0,783.0 211.0,783.0 211.0,757.0 185.0,757.0" fill="none" stroke="#00c8d9" stroke-width="5" stroke-linecap="round" stroke-linejoin="round"/>
<polygon points="133.0,843.0 126.6,850.7 139.4,850.7" fill="#00c8d9"/>
<polyline points="627.0,159.0 627.0,133.0 627.0,107.0 601.0,107.0 575.0,107.0 575.0,81.0 549.0,81.0 523.0,81.0" fill="none" stroke="#ff2d7a" stroke-width="5" stroke-linecap="round" stroke-linejoin="round"/>
<polygon points="627.0,167.0 620.6,174.7 633.4,174.7" fill="#ff2d7a"/>
<polyline points="575.0,445.0 549.0,445.0 549.0,471.0 575.0,471.0 601.0,471.0 627.0,471.0 627.0,497.0 627.0,523.0" fill="none" stroke="#1ea7ff" stroke-width="5" stroke-linecap="round" stroke-linejoin="round"/>
<polygon points="583.0,445.0 590.7,451.4 590.7,438.6" fill="#1ea7ff"/>
<polyline points="627.0,445.0 601.0,445.0 601.0,419.0 627.0,419.0 627.0,393.0 627.0,367.0 601.0,367.0 601.0,393.0" fill="none" stroke="#35c957" stroke-width="5" stroke-linecap="round" stroke-linejoin="round"/>
<polygon points="635.0,445.0 642.7,451.4 642.7,438.6" fill="#35c957"/>
<polyline points="133.0,887.0 133.0,861.0 107.0,861.0 107.0,835.0 81.0,835.0 55.0,835.0 29.0,835.0 29.0,809.0" fill="none" stroke="#1ea7ff" stroke-width="5" stroke-linecap="round" stroke-linejoin="round"/>
<polygon points="133.0,895.0 126.6,902.7 139.4,902.7" fill="#1ea7ff"/>
<polyline points="341.0,835.0 341.0,809.0 341.0,783.0 367.0,783.0 393.0,783.0" fill="none" stroke="#00c8d9" stroke-width="5" stroke-linecap="round" stroke-linejoin="round"/>
<polygon points="341.0,843.0 334.6,850.7 347.4,850.7" fill="#00c8d9"/>
<polyline points="341.0,887.0 341.0,861.0 367.0,861.0 393.0,861.0 393.0,887.0 419.0,887.0 445.0,887.0 471.0,887.0" fill="none" stroke="#35c957" stroke-width="5" stroke-linecap="round" stroke-linejoin="round"/>
<polygon points="341.0,895.0 334.6,902.7 347.4,902.7" fill="#35c957"/>
<polyline points="523.0,835.0 523.0,809.0 523.0,783.0 497.0,783.0 471.0,783.0 471.0,757.0 445.0,757.0" fill="none" stroke="#a25bbd" stroke-width="5" stroke-linecap="round" stroke-linejoin="round"/>
<polygon points="523.0,843.0 516.6,850.7 529.4,850.7" fill="#a25bbd"/>
<polyline points="523.0,887.0 523.0,861.0 497.0,861.0 471.0,861.0 445.0,861.0 445.0,835.0 471.0,835.0 471.0,809.0" fill="none" stroke="#ff3b4f" stroke-width="5" stroke-linecap="round" stroke-linejoin="round"/>
<polygon points="523.0,895.0 516.6,902.7 529.4,902.7" fill="#ff3b4f"/>
<polyline points="159.0,185.0 185.0,185.0 185.0,159.0 159.0,159.0 133.0,159.0 107.0,159.0 81.0,159.0 55.0,159.0" fill="none" stroke="#ff2d7a" stroke-width="5" stroke-linecap="round" stroke-linejoin="round"/>
<polygon points="151.0,185.0 143.3,178.6 143.3,191.4" fill="#ff2d7a"/>
<polyline points="55.0,185.0 81.0,185.0 107.0,185.0 133.0,185.0 133.0,211.0 159.0,211.0 185.0,211.0 185.0,237.0" fill="none" stroke="#ffe63b" stroke-width="5" stroke-linecap="round" stroke-linejoin="round"/>
<polygon points="47.0,185.0 39.3,178.6 39.3,191.4" fill="#ffe63b"/>
<polyline points="29.0,159.0 29.0,185.0 29.0,211.0 29.0,237.0 29.0,263.0 29.0,289.0 29.0,315.0 55.0,315.0" fill="none" stroke="#ff3b4f" stroke-width="5" stroke-linecap="round" stroke-linejoin="round"/>
<polygon points="29.0,151.0 35.4,143.3 22.6,143.3" fill="#ff3b4f"/>
<polyline points="29.0,107.0 29.0,133.0 55.0,133.0 81.0,133.0 81.0,107.0 107.0,107.0 133.0,107.0 159.0,107.0" fill="none" stroke="#ff3b4f" stroke-width="5" stroke-linecap="round" stroke-linejoin="round"/>
<polygon points="29.0,99.0 35.4,91.3 22.6,91.3" fill="#ff3b4f"/>
<polyline points="29.0,55.0 29.0,81.0 55.0,81.0 81.0,81.0 107.0,81.0 133.0,81.0 159.0,81.0" fill="none" stroke="#ff2d7a" stroke-width="5" stroke-linecap="round" stroke-linejoin="round"/>
<polygon points="29.0,47.0 35.4,39.3 22.6,39.3" fill="#ff2d7a"/>
<polyline points="55.0,29.0 29.0,29.0" fill="none" stroke="#ffe63b" stroke-width="5" stroke-linecap="round" stroke-linejoin="round"/>
<polygon points="63.0,29.0 70.7,35.4 70.7,22.6" fill="#ffe63b"/>
<polyline points="549.0,55.0 523.0,55.0 523.0,29.0 549.0,29.0 575.0,29.0 601.0,29.0 627.0,29.0" fill="none" stroke="#00c8d9" stroke-width="5" stroke-linecap="round" stroke-linejoin="round"/>
<polygon points="557.0,55.0 564.7,61.4 564.7,48.6" fill="#00c8d9"/>
<polyline points="627.0,81.0 601.0,81.0 601.0,55.0 575.0,55.0" fill="none" stroke="#1ea7ff" stroke-width="5" stroke-linecap="round" stroke-linejoin="round"/>
<polygon points="635.0,81.0 642.7,87.4 642.7,74.6" fill="#1ea7ff"/>
<polyline points="263.0,653.0 289.0,653.0 315.0,653.0 315.0,679.0 289.0,679.0 263.0,679.0 263.0,705.0 263.0,731.0" fill="none" stroke="#35c957" stroke-width="5" stroke-linecap="round" stroke-linejoin="round"/>
<polygon points="255.0,653.0 247.3,646.6 247.3,659.4" fill="#35c957"/>
<polyline points="159.0,653.0 185.0,653.0 211.0,653.0 237.0,653.0 237.0,679.0 237.0,705.0 237.0,731.0 237.0,757.0" fill="none" stroke="#1ea7ff" stroke-width="5" stroke-linecap="round" stroke-linejoin="round"/>
<polygon points="151.0,653.0 143.3,646.6 143.3,659.4" fill="#1ea7ff"/>
<polyline points="55.0,653.0 81.0,653.0 107.0,653.0 133.0,653.0 133.0,679.0 133.0,705.0 133.0,731.0" fill="none" stroke="#00c8d9" stroke-width="5" stroke-linecap="round" stroke-linejoin="round"/>
<polygon points="47.0,653.0 39.3,646.6 39.3,659.4" fill="#00c8d9"/>
<polyline points="55.0,471.0 81.0,471.0 107.0,471.0 133.0,471.0 159.0,471.0 159.0,497.0 185.0,497.0 185.0,523.0" fill="none" stroke="#ff2d7a" stroke-width="5" stroke-linecap="round" stroke-linejoin="round"/>
<polygon points="47.0,471.0 39.3,464.6 39.3,477.4" fill="#ff2d7a"/>
<polyline points="263.0,861.0 263.0,835.0 263.0,809.0 289.0,809.0 289.0,835.0 289.0,861.0" fill="none" stroke="#35c957" stroke-width="5" stroke-linecap="round" stroke-linejoin="round"/>
<polygon points="263.0,869.0 256.6,876.7 269.4,876.7" fill="#35c957"/>
<polyline points="29.0,523.0 55.0,523.0 55.0,497.0 29.0,497.0 29.0,471.0 29.0,445.0" fill="none" stroke="#a25bbd" stroke-width="5" stroke-linecap="round" stroke-linejoin="round"/>
<polygon points="21.0,523.0 13.3,516.6 13.3,529.4" fill="#a25bbd"/>
<polyline points="107.0,341.0 133.0,341.0 133.0,367.0 159.0,367.0 159.0,393.0 159.0,419.0 159.0,445.0 185.0,445.0" fill="none" stroke="#ff3b4f" stroke-width="5" stroke-linecap="round" stroke-linejoin="round"/>
<polygon points="99.0,341.0 91.3,334.6 91.3,347.4" fill="#ff3b4f"/>
<polyline points="55.0,341.0 81.0,341.0 81.0,315.0 81.0,289.0 81.0,263.0 81.0,237.0 107.0,237.0 107.0,211.0" fill="none" stroke="#35c957" stroke-width="5" stroke-linecap="round" stroke-linejoin="round"/>
<polygon points="47.0,341.0 39.3,334.6 39.3,347.4" fill="#35c957"/>
<polyline points="107.0,29.0 107.0,55.0 133.0,55.0 159.0,55.0 159.0,29.0 185.0,29.0 211.0,29.0 237.0,29.0" fill="none" stroke="#ff9d00" stroke-width="5" stroke-linecap="round" stroke-linejoin="round"/>
<polygon points="107.0,21.0 113.4,13.3 100.6,13.3" fill="#ff9d00"/>
<polyline points="29.0,601.0 55.0,601.0 55.0,627.0 29.0,627.0 29.0,653.0 29.0,679.0 29.0,705.0" fill="none" stroke="#ff3b4f" stroke-width="5" stroke-linecap="round" stroke-linejoin="round"/>
<polygon points="21.0,601.0 13.3,594.6 13.3,607.4" fill="#ff3b4f"/>
<polyline points="263.0,55.0 263.0,81.0 289.0,81.0 315.0,81.0 315.0,55.0 341.0,55.0 341.0,29.0 315.0,29.0" fill="none" stroke="#1ea7ff" stroke-width="5" stroke-linecap="round" stroke-linejoin="round"/>
<polygon points="263.0,47.0 269.4,39.3 256.6,39.3" fill="#1ea7ff"/>
<polyline points="315.0,861.0 315.0,835.0 315.0,809.0 315.0,783.0" fill="none" stroke="#ff2d7a" stroke-width="5" stroke-linecap="round" stroke-linejoin="round"/>
<polygon points="315.0,869.0 308.6,876.7 321.4,876.7" fill="#ff2d7a"/>
</svg>