<svg xmlns="http://www.w3.org/2000/svg" width="448" height="604" viewBox="0 0 448 604">
<rect width="100%" height="100%" fill="#171d2d"/>
<line x1="16" y1="16" x2="16" y2="588" stroke="#242b3d" stroke-width="1"/>
<line x1="42" y1="16" x2="42" y2="588" stroke="#242b3d" stroke-width="1"/>
<line x1="68" y1="16" x2="68" y2="588" stroke="#242b3d" stroke-width="1"/>
<line x1="94" y1="16" x2="94" y2="588" stroke="#242b3d" stroke-width="1"/>
<line x1="120" y1="16" x2="120" y2="588" stroke="#242b3d" stroke-width="1"/>
<line x1="146" y1="16" x2="146" y2="588" stroke="#242b3d" stroke-width="1"/>
<line x1="172" y1="16" x2="172" y2="588" stroke="#242b3d" stroke-width="1"/>
<line x1="198" y1="16" x2="198" y2="588" stroke="#242b3d" stroke-width="1"/>
<line x1="224" y1="16" x2="224" y2="588" stroke="#242b3d" stroke-width="1"/>
<line x1="250" y1="16" x2="250" y2="588" stroke="#242b3d" stroke-width="1"/>
<line x1="276" y1="16" x2="276" y2="588" stroke="#242b3d" stroke-width="1"/>
<line x1="302" y1="16" x2="302" y2="588" stroke="#242b3d" stroke-width="1"/>
<line x1="328" y1="16" x2="328" y2="588" stroke="#242b3d" stroke-width="1"/>
<line x1="354" y1="16" x2="354" y2="588" stroke="#242b3d" stroke-width="1"/>
<line x1="380" y1="16" x2="380" y2="588" stroke="#242b3d" stroke-width="1"/>
<line x1="406" y1="16" x2="406" y2="588" stroke="#242b3d" stroke-width="1"/>
<line x1="432" y1="16" x2="432" y2="588" stroke="#242b3d" stroke-width="1"/>
<line x1="16" y1="16" x2="432" y2="16" stroke="#242b3d" stroke-width="1"/>
<line x1="16" y1="42" x2="432" y2="42" stroke="#242b3d" stroke-width="1"/>
<line x1="16" y1="68" x2="432" y2="68" stroke="#242b3d" stroke-width="1"/>
<line x1="16" y1="94" x2="432" y2="94" stroke="#242b3d" stroke-width="1"/>
<line x1="16" y1="120" x2="432" y2="120" stroke="#242b3d" stroke-width="1"/>
<line x1="16" y1="146" x2="432" y2="146" stroke="#242b3d" stroke-width="1"/>
<line x1="16" y1="172" x2="432" y2="172" stroke="#242b3d" stroke-width="1"/>
<line x1="16" y1="198" x2="432" y2="198" stroke="#242b3d" stroke-width="1"/>
<line x1="16" y1="224" x2="432" y2="224" stroke="#242b3d" stroke-width="1"/>
<line x1="16" y1="250" x2="432" y2="250" stroke="#242b3d" stroke-width="1"/>
<line x1="16" y1="276" x2="432" y2="276" stroke="#242b3d" stroke-width="1"/>
<line x1="16" y1="302" x2="432" y2="302" stroke="#242b3d" stroke-width="1"/>
<line x1="16" y1="328" x2="432" y2="328" stroke="#242b3d" stroke-width="1"/>
<line x1="16" y1="354" x2="432" y2="354" stroke="#242b3d" stroke-width="1"/>
<line x1="16" y1="380" x2="432" y2="380" stroke="#242b3d" stroke-width="1"/>
<line x1="16" y1="406" x2="432" y2="406" stroke="#242b3d" stroke-width="1"/>
<line x1="16" y1="432" x2="432" y2="432" stroke="#242b3d" stroke-width="1"/>
<line x1="16" y1="458" x2="432" y2="458" stroke="#242b3d" stroke-width="1"/>
<line x1="16" y1="484" x2="432" y2="484" stroke="#242b3d" stroke-width="1"/>
<line x1="16" y1="510" x2="432" y2="510" stroke="#242b3d" stroke-width="1"/>
<line x1="16" y1="536" x2="432" y2="536" stroke="#242b3d" stroke-width="1"/>
<line x1="16" y1="562" x2="432" y2="562" stroke="#242b3d" stroke-width="1"/>
<line x1="16" y1="588" x2="432" y2="588" stroke="#242b3d" stroke-width="1"/>
<polyline points="29.0,211.0 55.0,211.0 81.0,211.0 107.0,211.0 133.0,211.0 159.0,211.0 185.0,211.0 211.0,211.0 237.0,211.0 263.0,211.0 289.0,211.0 315.0,211.0 341.0,211.0 367.0,211.0 393.0,211.0 419.0,211.0 419.0,185.0 393.0,185.0 367.0,185.0 341.0,185.0 315.0,185.0 289.0,185.0 263.0,185.0 237.0,185.0 211.0,185.0 185.0,185.0 159.0,185.0 133.0,185.0 107.0,185.0 81.0,185.0 55.0,185.0 29.0,185.0 29.0,159.0 55.0,159.0 81.0,159.0 107.0,159.0 133.0,159.0 159.0,159.0 185.0,159.0 211.0,159.0 237.0,159.0 263.0,159.0 289.0,159.0 315.0,159.0 341.0,159.0 367.0,159.0 393.0,159.0 419.0,159.0 419.0,133.0 393.0,133.0 367.0,133.0 341.0,133.0 315.0,133.0 289.0,133.0 263.0,133.0 237.0,133.0 211.0,133.0 185.0,133.0 159.0,133.0 133.0,133.0 107.0,133.0 81.0,133.0 55.0,133.0 29.0,133.0" fill="none" stroke="#ff3b4f" stroke-width="5" stroke-linecap="round" stroke-linejoin="round"/>
<polygon points="21.0,211.0 13.3,204.6 13.3,217.4" fill="#ff3b4f"/>
<polyline points="29.0,81.0 55.0,81.0 81.0,81.0 107.0,81.0 133.0,81.0 159.0,81.0 185.0,81.0 211.0,81.0 237.0,81.0 263.0,81.0 289.0,81.0 315.0,81.0 341.0,81.0 367.0,81.0 393.0,81.0 419.0,81.0 419.0,55.0 393.0,55.0 367.0,55.0 341.0,55.0 315.0,55.0 289.0,55.0 263.0,55.0 237.0,55.0 211.0,55.0 185.0,55.0 159.0,55.0 133.0,55.0 107.0,55.0 81.0,55.0 55.0,55.0 29.0,55.0 29.0,29.0 55.0,29.0 81.0,29.0 107.0,29.0 133.0,29.0 159.0,29.0 185.0,29.0 211.0,29.0 237.0,29.0 263.0,29.0 289.0,29.0 315.0,29.0 341.0,29.0 367.0,29.0 393.0,29.0 419.0,29.0" fill="none" stroke="#1ea7ff" stroke-width="5" stroke-linecap="round" stroke-linejoin="round"/>
<polygon points="21.0,81.0 13.3,74.6 13.3,87.4" fill="#1ea7ff"/>
<polyline points="29.0,419.0 55.0,419.0 81.0,419.0 107.0,419.0 133.0,419.0 159.0,419.0 185.0,419.0 211.0,419.0 237.0,419.0 263.0,419.0 289.0,419.0 315.0,419.0 341.0,419.0 367.0,419.0 393.0,419.0 419.0,419.0 419.0,393.0 393.0,393.0 367.0,393.0 341.0,393.0 315.0,393.0 289.0,393.0 263.0,393.0 237.0,393.0 211.0,393.0 185.0,393.0 159.0,393.0 133.0,393.0 107.0,393.0 81.0,393.0 55.0,393.0 29.0,393.0" fill="none" stroke="#ffe63b" stroke-width="5" stroke-linecap="round" stroke-linejoin="round"/>
<polygon points="21.0,419.0 13.3,412.6 13.3,425.4" fill="#ffe63b"/>
<polyline points="29.0,107.0 55.0,107.0 81.0,107.0 107.0,107.0 133.0,107.0 159.0,107.0 185.0,107.0 211.0,107.0 237.0,107.0 263.0,107.0 289.0,107.0 315.0,107.0 341.0,107.0 367.0,107.0 393.0,107.0 419.0,107.0" fill="none" stroke="#35c957" stroke-width="5" stroke-linecap="round" stroke-linejoin="round"/>
<polygon points="21.0,107.0 13.3,100.6 13.3,113.4" fill="#35c957"/>
<polyline points="107.0,237.0 107.0,263.0 107.0,289.0 107.0,315.0 81.0,315.0 81.0,289.0 81.0,263.0 81.0,237.0 55.0,237.0 55.0,263.0 55.0,289.0 55.0,315.0 29.0,315.0 29.0,289.0 29.0,263.0 29.0,237.0" fill="none" stroke="#a25bbd" stroke-width="5" stroke-linecap="round" stroke-linejoin="round"/>
<polygon points="107.0,229.0 113.4,221.3 100.6,221.3" fill="#a25bbd"/>
<polyline points="211.0,237.0 211.0,263.0 211.0,289.0 211.0,315.0 185.0,315.0 185.0,289.0 185.0,263.0 185.0,237.0 159.0,237.0 159.0,263.0 159.0,289.0 159.0,315.0 133.0,315.0 133.0,289.0 133.0,263.0 133.0,237.0" fill="none" stroke="#00c8d9" stroke-width="5" stroke-linecap="round" stroke-linejoin="round"/>
<polygon points="211.0,229.0 217.4,221.3 204.6,221.3" fill="#00c8d9"/>
<polyline points="315.0,237.0 315.0,263.0 315.0,289.0 315.0,315.0 289.0,315.0 289.0,289.0 289.0,263.0 289.0,237.0 263.0,237.0 263.0,263.0 263.0,289.0 263.0,315.0 237.0,315.0 237.0,289.0 237.0,263.0 237.0,237.0" fill="none" stroke="#ff9d00" stroke-width="5" stroke-linecap="round" stroke-linejoin="round"/>
<polygon points="315.0,229.0 321.4,221.3 308.6,221.3" fill="#ff9d00"/>
<polyline points="419.0,237.0 419.0,263.0 419.0,289.0 419.0,315.0 393.0,315.0 393.0,289.0 393.0,263.0 393.0,237.0 367.0,237.0 367.0,263.0 367.0,289.0 367.0,315.0 341.0,315.0 341.0,289.0 341.0,263.0 341.0,237.0" fill="none" stroke="#ff2d7a" stroke-width="5" stroke-linecap="round" stroke-linejoin="round"/>
<polygon points="419.0,229.0 425.4,221.3 412.6,221.3" fill="#ff2d7a"/>
<polyline points="211.0,341.0 211.0,367.0 185.0,367.0 185.0,341.0 159.0,341.0 159.0,367.0 133.0,367.0 133.0,341.0 107.0,341.0 107.0,367.0 81.0,367.0 81.0,341.0 55.0,341.0 55.0,367.0 29.0,367.0 29.0,341.0" fill="none" stroke="#ff3b4f" stroke-width="5" stroke-linecap="round" stroke-linejoin="round"/>
<polygon points="211.0,333.0 217.4,325.3 204.6,325.3" fill="#ff3b4f"/>
<polyline points="419.0,341.0 419.0,367.0 393.0,367.0 393.0,341.0 367.0,341.0 367.0,367.0 341.0,367.0 341.0,341.0 315.0,341.0 315.0,367.0 289.0,367.0 289.0,341.0 263.0,341.0 263.0,367.0 237.0,367.0 237.0,341.0" fill="none" stroke="#1ea7ff" stroke-width="5" stroke-linecap="round" stroke-linejoin="round"/>
<polygon points="419.0,333.0 425.4,325.3 412.6,325.3" fill="#1ea7ff"/>
<polyline points="107.0,445.0 107.0,471.0 107.0,497.0 107.0,523.0 107.0,549.0 107.0,575.0 81.0,575.0 81.0,549.0 81.0,523.0 81.0,497.0 81.0,471.0 81.0,445.0 55.0,445.0 55.0,471.0 55.0,497.0 55.0,523.0 55.0,549.0 55.0,575.0 29.0,575.0 29.0,549.0 29.0,523.0 29.0,497.0 29.0,471.0 29.0,445.0" fill="none" stroke="#ffe63b" stroke-width="5" stroke-linecap="round" stroke-linejoin="round"/>
<polygon points="107.0,437.0 113.4,429.3 100.6,429.3" fill="#ffe63b"/>
<polyline points="211.0,445.0 211.0,471.0 211.0,497.0 211.0,523.0 211.0,549.0 211.0,575.0 185.0,575.0 185.0,549.0 185.0,523.0 185.0,497.0 185.0,471.0 185.0,445.0 159.0,445.0 159.0,471.0 159.0,497.0 159.0,523.0 159.0,549.0 159.0,575.0 133.0,575.0 133.0,549.0 133.0,523.0 133.0,497.0 133.0,471.0 133.0,445.0" fill="none" stroke="#35c957" stroke-width="5" stroke-linecap="round" stroke-linejoin="round"/>
<polygon points="211.0,437.0 217.4,429.3 204.6,429.3" fill="#35c957"/>
<polyline points="315.0,445.0 315.0,471.0 315.0,497.0 315.0,523.0 315.0,549.0 315.0,575.0 289.0,575.0 289.0,549.0 289.0,523.0 289.0,497.0 289.0,471.0 289.0,445.0 263.0,445.0 263.0,471.0 263.0,497.0 263.0,523.0 263.0,549.0 263.0,575.0 237.0,575.0 237.0,549.0 237.0,523.0 237.0,497.0 237.0,471.0 237.0,445.0" fill="none" stroke="#a25bbd" stroke-width="5" stroke-linecap="round" stroke-linejoin="round"/>
<polygon points="315.0,437.0 321.4,429.3 308.6,429.3" fill="#a25bbd"/>
<polyline points="419.0,445.0 419.0,471.0 419.0,497.0 419.0,523.0 419.0,549.0 419.0,575.0 393.0,575.0 393.0,549.0 393.0,523.0 393.0,497.0 393.0,471.0 393.0,445.0 367.0,445.0 367.0,471.0 367.0,497.0 367.0,523.0 367.0,549.0 367.0,575.0 341.0,575.0 341.0,549.0 341.0,523.0 341.0,497.0 341.0,471.0 341.0,445.0" fill="none" stroke="#00c8d9" stroke-width="5" stroke-linecap="round" stroke-linejoin="round"/>
<polygon points="419.0,437.0 425.4,429.3 412.6,429.3" fill="#00c8d9"/>
</svg>