<svg xmlns="http://www.w3.org/2000/svg" width="344" height="448" viewBox="0 0 344 448">
<rect width="100%" height="100%" fill="#171d2d"/>
<line x1="16" y1="16" x2="16" y2="432" stroke="#242b3d" stroke-width="1"/>
<line x1="42" y1="16" x2="42" y2="432" stroke="#242b3d" stroke-width="1"/>
<line x1="68" y1="16" x2="68" y2="432" stroke="#242b3d" stroke-width="1"/>
<line x1="94" y1="16" x2="94" y2="432" stroke="#242b3d" stroke-width="1"/>
<line x1="120" y1="16" x2="120" y2="432" stroke="#242b3d" stroke-width="1"/>
<line x1="146" y1="16" x2="146" y2="432" stroke="#242b3d" stroke-width="1"/>
<line x1="172" y1="16" x2="172" y2="432" stroke="#242b3d" stroke-width="1"/>
<line x1="198" y1="16" x2="198" y2="432" stroke="#242b3d" stroke-width="1"/>
<line x1="224" y1="16" x2="224" y2="432" stroke="#242b3d" stroke-width="1"/>
<line x1="250" y1="16" x2="250" y2="432" stroke="#242b3d" stroke-width="1"/>
<line x1="276" y1="16" x2="276" y2="432" stroke="#242b3d" stroke-width="1"/>
<line x1="302" y1="16" x2="302" y2="432" stroke="#242b3d" stroke-width="1"/>
<line x1="328" y1="16" x2="328" y2="432" stroke="#242b3d" stroke-width="1"/>
<line x1="16" y1="16" x2="328" y2="16" stroke="#242b3d" stroke-width="1"/>
<line x1="16" y1="42" x2="328" y2="42" stroke="#242b3d" stroke-width="1"/>
<line x1="16" y1="68" x2="328" y2="68" stroke="#242b3d" stroke-width="1"/>
<line x1="16" y1="94" x2="328" y2="94" stroke="#242b3d" stroke-width="1"/>
<line x1="16" y1="120" x2="328" y2="120" stroke="#242b3d" stroke-width="1"/>
<line x1="16" y1="146" x2="328" y2="146" stroke="#242b3d" stroke-width="1"/>
<line x1="16" y1="172" x2="328" y2="172" stroke="#242b3d" stroke-width="1"/>
<line x1="16" y1="198" x2="328" y2="198" stroke="#242b3d" stroke-width="1"/>
<line x1="16" y1="224" x2="328" y2="224" stroke="#242b3d" stroke-width="1"/>
<line x1="16" y1="250" x2="328" y2="250" stroke="#242b3d" stroke-width="1"/>
<line x1="16" y1="276" x2="328" y2="276" stroke="#242b3d" stroke-width="1"/>
<line x1="16" y1="302" x2="328" y2="302" stroke="#242b3d" stroke-width="1"/>
<line x1="16" y1="328" x2="328" y2="328" stroke="#242b3d" stroke-width="1"/>
<line x1="16" y1="354" x2="328" y2="354" stroke="#242b3d" stroke-width="1"/>
<line x1="16" y1="380" x2="328" y2="380" stroke="#242b3d" stroke-width="1"/>
<line x1="16" y1="406" x2="328" y2="406" stroke="#242b3d" stroke-width="1"/>
<line x1="16" y1="432" x2="328" y2="432" stroke="#242b3d" stroke-width="1"/>
<polyline points="289.0,289.0 263.0,289.0 263.0,315.0 237.0,315.0 237.0,341.0" fill="none" stroke="#00c8d9" stroke-width="5" stroke-linecap="round" stroke-linejoin="round"/>
<polygon points="297.0,289.0 304.7,295.4 304.7,282.6" fill="#00c8d9"/>
<polyline points="289.0,341.0 289.0,315.0 315.0,315.0 315.0,289.0 315.0,263.0" fill="none" stroke="#35c957" stroke-width="5" stroke-linecap="round" stroke-linejoin="round"/>
<polygon points="289.0,349.0 282.6,356.7 295.4,356.7" fill="#35c957"/>
<polyline points="289.0,367.0 263.0,367.0 263.0,341.0" fill="none" stroke="#1ea7ff" stroke-width="5" stroke-linecap="round" stroke-linejoin="round"/>
<polygon points="297.0,367.0 304.7,373.4 304.7,360.6" fill="#1ea7ff"/>
<polyline points="315.0,367.0 315.0,341.0" fill="none" stroke="#ff9d00" stroke-width="5" stroke-linecap="round" stroke-linejoin="round"/>
<polygon points="315.0,375.0 308.6,382.7 321.4,382.7" fill="#ff9d00"/>
<polyline points="289.0,393.0 315.0,393.0 315.0,419.0 289.0,419.0 263.0,419.0" fill="none" stroke="#35c957" stroke-width="5" stroke-linecap="round" stroke-linejoin="round"/>
<polygon points="281.0,393.0 273.3,386.6 273.3,399.4" fill="#35c957"/>
<polyline points="211.0,393.0 211.0,367.0 237.0,367.0 237.0,393.0 263.0,393.0" fill="none" stroke="#a25bbd" stroke-width="5" stroke-linecap="round" stroke-linejoin="round"/>
<polygon points="211.0,401.0 204.6,408.7 217.4,408.7" fill="#a25bbd"/>
<polyline points="185.0,419.0 211.0,419.0 237.0,419.0" fill="none" stroke="#35c957" stroke-width="5" stroke-linecap="round" stroke-linejoin="round"/>
<polygon points="177.0,419.0 169.3,412.6 169.3,425.4" fill="#35c957"/>
<polyline points="107.0,393.0 133.0,393.0 133.0,419.0 107.0,419.0 81.0,419.0" fill="none" stroke="#ff9d00" stroke-width="5" stroke-linecap="round" stroke-linejoin="round"/>
<polygon points="99.0,393.0 91.3,386.6 91.3,399.4" fill="#ff9d00"/>
<polyline points="55.0,341.0 55.0,367.0 55.0,393.0 29.0,393.0 29.0,419.0" fill="none" stroke="#1ea7ff" stroke-width="5" stroke-linecap="round" stroke-linejoin="round"/>
<polygon points="55.0,333.0 61.4,325.3 48.6,325.3" fill="#1ea7ff"/>
<polyline points="81.0,263.0 107.0,263.0 107.0,237.0 81.0,237.0 55.0,237.0" fill="none" stroke="#ffe63b" stroke-width="5" stroke-linecap="round" stroke-linejoin="round"/>
<polygon points="73.0,263.0 65.3,256.6 65.3,269.4" fill="#ffe63b"/>
<polyline points="29.0,237.0 29.0,263.0 55.0,263.0 55.0,289.0 29.0,289.0" fill="none" stroke="#35c957" stroke-width="5" stroke-linecap="round" stroke-linejoin="round"/>
<polygon points="29.0,229.0 35.4,221.3 22.6,221.3" fill="#35c957"/>
<polyline points="55.0,185.0 81.0,185.0 81.0,211.0 55.0,211.0 29.0,211.0" fill="none" stroke="#ff2d7a" stroke-width="5" stroke-linecap="round" stroke-linejoin="round"/>
<polygon points="47.0,185.0 39.3,178.6 39.3,191.4" fill="#ff2d7a"/>
<polyline points="55.0,133.0 55.0,159.0 29.0,159.0 29.0,185.0" fill="none" stroke="#ff9d00" stroke-width="5" stroke-linecap="round" stroke-linejoin="round"/>
<polygon points="55.0,125.0 61.4,117.3 48.6,117.3" fill="#ff9d00"/>
<polyline points="81.0,81.0 55.0,81.0 55.0,55.0 55.0,29.0 29.0,29.0" fill="none" stroke="#a25bbd" stroke-width="5" stroke-linecap="round" stroke-linejoin="round"/>
<polygon points="89.0,81.0 96.7,87.4 96.7,74.6" fill="#a25bbd"/>
<polyline points="159.0,55.0 159.0,81.0 185.0,81.0 211.0,81.0 237.0,81.0" fill="none" stroke="#ffe63b" stroke-width="5" stroke-linecap="round" stroke-linejoin="round"/>
<polygon points="159.0,47.0 165.4,39.3 152.6,39.3" fill="#ffe63b"/>
<polyline points="159.0,29.0 133.0,29.0 133.0,55.0 107.0,55.0 107.0,81.0" fill="none" stroke="#a25bbd" stroke-width="5" stroke-linecap="round" stroke-linejoin="round"/>
<polygon points="167.0,29.0 174.7,35.4 174.7,22.6" fill="#a25bbd"/>
<polyline points="315.0,55.0 315.0,81.0 289.0,81.0 289.0,55.0 289.0,29.0" fill="none" stroke="#ff2d7a" stroke-width="5" stroke-linecap="round" stroke-linejoin="round"/>
<polygon points="315.0,47.0 321.4,39.3 308.6,39.3" fill="#ff2d7a"/>
<polyline points="107.0,133.0 81.0,133.0 81.0,107.0 55.0,107.0 29.0,107.0" fill="none" stroke="#ff9d00" stroke-width="5" stroke-linecap="round" stroke-linejoin="round"/>
<polygon points="115.0,133.0 122.7,139.4 122.7,126.6" fill="#ff9d00"/>
<polyline points="263.0,55.0 263.0,81.0 263.0,107.0 263.0,133.0" fill="none" stroke="#00c8d9" stroke-width="5" stroke-linecap="round" stroke-linejoin="round"/>
<polygon points="263.0,47.0 269.4,39.3 256.6,39.3" fill="#00c8d9"/>
<polyline points="159.0,367.0 159.0,341.0 185.0,341.0 185.0,367.0 185.0,393.0" fill="none" stroke="#ffe63b" stroke-width="5" stroke-linecap="round" stroke-linejoin="round"/>
<polygon points="159.0,375.0 152.6,382.7 165.4,382.7" fill="#ffe63b"/>
<polyline points="159.0,419.0 159.0,393.0" fill="none" stroke="#00c8d9" stroke-width="5" stroke-linecap="round" stroke-linejoin="round"/>
<polygon points="159.0,427.0 152.6,434.7 165.4,434.7" fill="#00c8d9"/>
<polyline points="211.0,29.0 211.0,55.0 237.0,55.0 237.0,29.0 263.0,29.0" fill="none" stroke="#1ea7ff" stroke-width="5" stroke-linecap="round" stroke-linejoin="round"/>
<polygon points="211.0,21.0 217.4,13.3 204.6,13.3" fill="#1ea7ff"/>
<polyline points="211.0,185.0 185.0,185.0 185.0,159.0 159.0,159.0 159.0,133.0" fill="none" stroke="#00c8d9" stroke-width="5" stroke-linecap="round" stroke-linejoin="round"/>
<polygon points="219.0,185.0 226.7,191.4 226.7,178.6" fill="#00c8d9"/>
<polyline points="263.0,237.0 237.0,237.0 237.0,211.0 237.0,185.0 263.0,185.0" fill="none" stroke="#ff9d00" stroke-width="5" stroke-linecap="round" stroke-linejoin="round"/>
<polygon points="271.0,237.0 278.7,243.4 278.7,230.6" fill="#ff9d00"/>
<polyline points="315.0,185.0 289.0,185.0 289.0,211.0 289.0,237.0" fill="none" stroke="#ff3b4f" stroke-width="5" stroke-linecap="round" stroke-linejoin="round"/>
<polygon points="323.0,185.0 330.7,191.4 330.7,178.6" fill="#ff3b4f"/>
<polyline points="263.0,159.0 237.0,159.0 237.0,133.0 211.0,133.0 211.0,107.0" fill="none" stroke="#ff3b4f" stroke-width="5" stroke-linecap="round" stroke-linejoin="round"/>
<polygon points="271.0,159.0 278.7,165.4 278.7,152.6" fill="#ff3b4f"/>
<polyline points="315.0,159.0 289.0,159.0 289.0,133.0 315.0,133.0 315.0,107.0" fill="none" stroke="#ff9d00" stroke-width="5" stroke-linecap="round" stroke-linejoin="round"/>
<polygon points="323.0,159.0 330.7,165.4 330.7,152.6" fill="#ff9d00"/>
<polyline points="55.0,315.0 81.0,315.0 81.0,289.0 107.0,289.0" fill="none" stroke="#ff2d7a" stroke-width="5" stroke-linecap="round" stroke-linejoin="round"/>
<polygon points="47.0,315.0 39.3,308.6 39.3,321.4" fill="#ff2d7a"/>
<polyline points="185.0,29.0 185.0,55.0" fill="none" stroke="#00c8d9" stroke-width="5" stroke-linecap="round" stroke-linejoin="round"/>
<polygon points="185.0,21.0 191.4,13.3 178.6,13.3" fill="#00c8d9"/>
<polyline points="81.0,29.0 81.0,55.0" fill="none" stroke="#ff2d7a" stroke-width="5" stroke-linecap="round" stroke-linejoin="round"/>
<polygon points="81.0,21.0 87.4,13.3 74.6,13.3" fill="#ff2d7a"/>
</svg>